<svg width="128" height="128" viewBox="0 0 128 128" fill="none" xmlns="http://www.w3.org/2000/svg">
<path d="M66.0814 69.5178C66.2981 65.6535 68.1873 62.2391 71.0497 59.8265C73.8507 57.4548 77.6128 56.0032 81.7428 56.0032C85.8524 56.0032 89.6145 57.4528 92.4155 59.8265C95.2779 62.2391 97.1589 65.6535 97.3838 69.5178C97.6006 73.4843 96.0037 77.185 93.2129 79.9247C90.3505 82.7053 86.3022 84.4636 81.7428 84.4636C77.1834 84.4636 73.1147 82.7176 70.2728 79.9247C67.4717 77.185 65.8769 73.5047 66.1018 69.5383L66.0814 69.5178Z" fill="white"/>
<path d="M41.5464 77.6961C41.573 79.2091 42.0555 82.1533 42.7793 84.4432C44.3005 89.3093 46.8889 93.8074 50.4669 97.7534C54.1472 101.822 58.6861 105.093 63.9202 107.424C69.4201 109.857 75.3903 111.105 81.5854 111.105C87.7804 111.096 93.7506 109.829 99.2505 107.363C104.485 105.012 109.024 101.74 112.704 97.6512C116.302 93.6643 118.878 89.1662 120.391 84.3002C121.158 81.8467 121.643 79.3522 121.837 76.8579C122.027 74.4044 121.947 71.9304 121.598 69.4565C120.915 64.6518 119.246 60.1332 116.691 56.0441C114.36 52.2616 111.334 48.9698 107.735 46.1892L107.744 46.1831L71.5547 18.3768C71.522 18.3523 71.4954 18.3257 71.4606 18.3032C69.0889 16.4794 65.0815 16.4856 62.4849 18.3134C59.8474 20.1617 59.5408 23.2204 61.892 25.1423L61.8818 25.1526L76.9912 37.4405L30.9882 37.4895H30.9269C27.124 37.4936 23.4642 39.9839 22.7486 43.153C22.0044 46.363 24.5887 49.0414 28.5552 49.0414L28.5491 49.0557L51.8572 49.0107L10.1479 80.9061C10.0947 80.945 10.0375 80.9859 9.98839 81.0247C6.0628 84.0302 4.79516 89.0395 7.2691 92.1881C9.78393 95.3981 15.1203 95.4185 19.0868 92.2065L41.7816 73.6009C41.7816 73.6009 41.4503 76.1157 41.4769 77.6082L41.5464 77.6961ZM100.021 86.0993C95.3393 90.8632 88.7761 93.5825 81.7019 93.5825C74.6072 93.5948 68.0441 90.9246 63.3621 86.1607C61.0721 83.8299 59.3956 81.1719 58.3528 78.33C57.3367 75.5289 56.9421 72.5643 57.2038 69.5792C57.4512 66.6554 58.3222 63.8544 59.7186 61.3395C61.0844 58.8656 62.9695 56.6166 65.2799 54.7151C69.8393 51.0144 75.6254 48.9903 81.6774 48.9903C87.7498 48.9821 93.5359 50.9715 98.0953 54.6742C100.406 56.5634 102.287 58.8043 103.657 61.2782C105.053 63.793 105.926 66.5737 106.171 69.5178C106.429 72.5029 106.034 75.4676 105.018 78.2686C103.98 81.131 102.299 83.789 100.009 86.1198L100.021 86.0993Z" fill="white"/>
</svg>
