<svg width="128" height="128" viewBox="0 0 128 128" fill="none" xmlns="http://www.w3.org/2000/svg">
<path d="M38.7989 80.557L25.3768 77.0537C24.2097 79.3892 21.642 84.761 20.7083 87.5637C19.7746 90.3664 21.4864 90.6778 22.459 90.4832C25.9604 89.51 33.3134 87.4469 34.714 86.9798C36.1145 86.5127 36.8537 85.6174 37.0482 85.2282L38.7989 80.557Z" fill="white"/>
<path d="M39.3825 58.3691C38.6044 58.3691 37.1649 57.902 37.6318 56.0335L43.4675 29.1745C44.0511 27.4228 44.6346 26.547 46.3853 26.255C49.8867 25.6711 119.331 21 121.666 21C123.533 21 124 22.9463 124 23.9195L115.246 68.2953L39.3825 58.3691Z" fill="white"/>
<path d="M7.28621 64.7919C3.20123 65.3758 2.61766 67.7114 7.28621 68.8792C30.2399 75.4966 76.4975 88.8483 77.8981 89.3154C79.6488 89.8993 80.2323 89.8993 81.3995 89.3154L110.578 74.7181C111.551 74.1342 112.795 72.7328 109.994 71.7986C107.193 70.8644 62.9198 64.7919 41.1332 61.8725C38.4099 61.4832 34.845 60.3281 30.0454 61.2886C27.1276 61.8724 11.3712 64.208 7.28621 64.7919Z" fill="white"/>
<path d="M79.0652 93.4026L75.5638 92.2349C74.2021 95.9329 71.3621 103.796 70.8952 105.664C70.3117 108 72.0624 108.584 74.3966 107.416C76.7309 106.248 88.4023 100.409 90.153 99.2416C91.5536 98.3074 91.9037 97.6846 91.9037 97.4899C92.4873 94.7651 93.7711 88.9651 94.238 87.5637C94.7048 86.1624 94.0435 86.2013 93.6544 86.3959C90.542 88.1476 83.9672 91.8845 82.5666 92.8188C81.166 93.753 79.6488 93.5973 79.0652 93.4026Z" fill="white"/>
</svg>
