<svg width="128" height="128" viewBox="0 0 128 128" fill="none" xmlns="http://www.w3.org/2000/svg">
<path d="M24 24V104H104V24H24ZM120 104C120 112.837 112.837 120 104 120H24C15.1634 120 8 112.837 8 104V24C8 15.1634 15.1634 8 24 8H104C112.837 8 120 15.1634 120 24V104Z" fill="white"/>
<path d="M72 80C76.4183 80 80 83.5817 80 88C80 92.4183 76.4183 96 72 96H40C35.5817 96 32 92.4183 32 88C32 83.5817 35.5817 80 40 80H72ZM88 56C92.4183 56 96 59.5817 96 64C96 68.4183 92.4183 72 88 72H64C59.5817 72 56 68.4183 56 64C56 59.5817 59.5817 56 64 56H88ZM56 32C60.4183 32 64 35.5817 64 40C64 44.4183 60.4183 48 56 48H40C35.5817 48 32 44.4183 32 40C32 35.5817 35.5817 32 40 32H56ZM88 32C92.4183 32 96 35.5817 96 40C96 44.4183 92.4183 48 88 48H80C75.5817 48 72 44.4183 72 40C72 35.5817 75.5817 32 80 32H88Z" fill="white"/>
</svg>
