<svg width="128" height="128" viewBox="0 0 128 128" fill="none" xmlns="http://www.w3.org/2000/svg">
<path d="M96.3379 14.5C101.977 14.5 106.292 15.9035 109.193 18.7842C112.096 21.6655 113.5 25.9409 113.5 31.502V96.498C113.5 102.059 112.096 106.335 109.193 109.216C106.292 112.096 101.977 113.5 96.3379 113.5H31.7148C26.1029 113.5 21.7758 112.11 18.8545 109.237C15.9319 106.363 14.5 102.087 14.5 96.498V31.502C14.5 25.9125 15.9319 21.6368 18.8545 18.7627C21.7758 15.8901 26.1029 14.5 31.7148 14.5H96.3379ZM31.874 24.0703C29.2971 24.0704 27.366 24.7526 26.0781 26.0283C24.7911 27.3033 24.0703 29.2464 24.0703 31.9277V96.0723C24.0703 98.7536 24.7911 100.697 26.0781 101.972C27.366 103.247 29.2971 103.93 31.874 103.93H96.1787C98.7279 103.93 100.646 103.248 101.928 101.973C103.209 100.697 103.93 98.7536 103.93 96.0723V31.9277C103.93 29.2464 103.209 27.3025 101.928 26.0273C100.646 24.7517 98.7279 24.0704 96.1787 24.0703H31.874ZM77.6543 36.6445C80.1423 36.6448 81.9858 38.7864 81.498 41.2861L81.4971 41.292L79.5459 50.6445H83.6689C85.7186 50.6445 87.2031 52.2165 87.2031 54.2852C87.2031 56.5739 85.499 58.3513 83.1904 58.3516H77.9521L75.876 68.1582H79.8896C81.9394 68.1583 83.4238 69.7301 83.4238 71.7988C83.4237 74.0926 81.7142 75.8652 79.3574 75.8652H74.2275L71.916 86.9551L71.917 86.9561C71.7119 88.0397 71.2182 88.9151 70.4395 89.5146C69.6651 90.1109 68.6571 90.3975 67.4863 90.3975C64.989 90.3973 63.2024 88.2426 63.751 85.7441L65.8066 75.918H56.9277L54.6152 86.9658L54.6143 86.9688C54.3833 88.0367 53.9096 88.9066 53.1689 89.5068C52.428 90.1074 51.47 90.3975 50.3457 90.3975C47.8576 90.3974 46.0139 88.2556 46.502 85.7559L46.5029 85.75L48.5605 75.8652H44.3838C42.2865 75.8652 40.797 74.2991 40.7969 72.2246C40.7969 69.9257 42.5641 68.1582 44.8633 68.1582H50.1533L52.2305 58.3516H48.1631C46.1136 58.3514 44.6289 56.7797 44.6289 54.7109C44.629 52.4221 46.3338 50.6445 48.6426 50.6445H53.877L56.0312 40.1318V40.1289C56.2623 39.0307 56.751 38.1451 57.5137 37.5381C58.275 36.9322 59.2587 36.6446 60.4062 36.6445C62.9678 36.6445 64.6828 38.8597 64.1973 41.2881L64.1963 41.292L62.2451 50.6445H71.126L73.332 40.1289C73.5633 39.0309 74.0513 38.1467 74.8057 37.54C75.5595 36.9339 76.5304 36.6445 77.6543 36.6445ZM58.1455 68.7969H67.7725L70.0645 57.8193H60.3887L58.1455 68.7969Z" fill="white" stroke="white"/>
</svg>
