<svg width="32" height="32" viewBox="0 0 32 32" fill="none" xmlns="http://www.w3.org/2000/svg">
<path d="M27.0572 12.9428C27.4385 13.3241 28.012 13.4381 28.5103 13.2318C29.0085 13.0254 29.3333 12.5392 29.3333 12V3.99996C29.3333 3.26357 28.7364 2.66663 28 2.66663H20C19.4607 2.66663 18.9745 2.99148 18.7681 3.48972C18.5617 3.98795 18.6759 4.56144 19.0572 4.94277L21.6429 7.52855L12.781 16.3905C12.2603 16.9112 12.2603 17.7555 12.781 18.2761L13.7237 19.2189C14.2445 19.7397 15.0887 19.7397 15.6095 19.2189L24.4715 10.357L27.0572 12.9428Z" fill="#008B8B"/>
<path d="M6 10.6668C6 10.2986 6.29848 10.0001 6.66667 10.0001H13.4167C14.1531 10.0001 14.75 9.40316 14.75 8.66679V7.33346C14.75 6.59707 14.1531 6.00012 13.4167 6.00012H6.66667C4.08933 6.00012 2 8.08946 2 10.6668V25.3335C2 27.9108 4.08933 30.0002 6.66667 30.0002H21.3333C23.9107 30.0002 26 27.9108 26 25.3335V18.5835C26 17.8471 25.4031 17.2502 24.6667 17.2502H23.3333C22.5969 17.2502 22 17.8471 22 18.5835V25.3335C22 25.7016 21.7015 26.0002 21.3333 26.0002H6.66667C6.29848 26.0002 6 25.7016 6 25.3335V10.6668Z" fill="#008B8B"/>
</svg>
