<svg width="800" height="800" viewBox="0 0 800 800" fill="none" xmlns="http://www.w3.org/2000/svg">
<path d="M156.648 435.721C169.219 413.348 192.884 399.5 218.547 399.5H655.667C709.955 399.5 744.158 457.951 717.566 505.279L629.352 662.279C616.781 684.652 593.116 698.5 567.453 698.5H130.333C76.0451 698.5 41.8418 640.049 68.4344 592.721L156.648 435.721Z" stroke="white" stroke-width="67"/>
<path d="M59 629.5C59 592.163 59 217.328 66.2664 203.067C72.6577 190.523 82.8564 180.324 95.4007 173.933C109.661 166.667 128.33 166.667 165.667 166.667H281.484C297.79 166.667 305.943 166.667 313.617 168.509C320.417 170.142 326.92 172.835 332.887 176.491C339.613 180.613 345.38 186.378 356.91 197.909L361.09 202.091C372.62 213.622 378.387 219.387 385.113 223.509C391.08 227.165 397.583 229.858 404.383 231.491C412.057 233.333 420.21 233.333 436.517 233.333H552.333C589.67 233.333 608.34 233.333 622.6 240.6C635.143 246.991 645.343 257.19 651.733 269.734C659 283.995 659 276.163 659 313.5" stroke="white" stroke-width="66.6667" stroke-linecap="round" stroke-linejoin="round"/>
</svg>
