<svg width="800" height="800" viewBox="0 0 800 800" fill="none" xmlns="http://www.w3.org/2000/svg">
<path d="M59 273.333C59 235.996 59 217.328 66.2663 203.067C72.6577 190.523 82.8563 180.324 95.4007 173.933C109.661 166.667 128.33 166.667 165.667 166.667H281.484C297.79 166.667 305.943 166.667 313.617 168.509C320.417 170.142 326.92 172.835 332.887 176.491C339.613 180.613 345.38 186.378 356.91 197.909L361.09 202.091C372.62 213.622 378.387 219.387 385.113 223.509C391.08 227.165 397.583 229.858 404.383 231.491C412.057 233.333 420.21 233.333 436.517 233.333H552.333C589.67 233.333 608.34 233.333 622.6 240.6C635.143 246.991 645.343 257.19 651.733 269.734C659 283.995 659 302.663 659 340V526.667C659 564.003 659 582.673 651.733 596.933C645.343 609.477 635.143 619.677 622.6 626.067C608.34 633.333 589.67 633.333 552.333 633.333H165.667C128.33 633.333 109.661 633.333 95.4007 626.067C82.8563 619.677 72.6577 609.477 66.2663 596.933C59 582.673 59 564.003 59 526.667V273.333Z" stroke="white" stroke-width="66.6667" stroke-linecap="round" stroke-linejoin="round"/>
</svg>
