<svg width="800" height="800" viewBox="0 0 800 800" fill="none" xmlns="http://www.w3.org/2000/svg">
<path d="M156.648 498.5C177.5 477.5 192.884 462.279 218.547 462.279H388.031C407.17 462.279 423.909 449.392 428.804 430.89C433.698 412.387 450.438 399.5 469.576 399.5H655.667C709.955 399.5 744.158 457.951 717.566 505.279L629.352 662.279C616.781 684.652 593.116 698.5 567.453 698.5H130.333C78.9632 698.5 45.5768 646.164 64.6669 600.438C66.8631 595.178 70.4037 590.618 74.2996 586.456L156.648 498.5Z" stroke="white" stroke-width="67"/>
<path d="M659 313.5C659 276.163 659 283.995 651.733 269.734C645.343 257.19 635.143 246.991 622.6 240.6C608.34 233.333 589.67 233.333 552.333 233.333H436.517C420.21 233.333 412.057 233.333 404.383 231.491C397.583 229.858 391.08 227.165 385.113 223.509C378.387 219.387 372.62 213.622 361.09 202.091L356.91 197.909C345.38 186.378 339.613 180.613 332.887 176.491C326.92 172.835 320.417 170.142 313.617 168.509C305.943 166.667 297.79 166.667 281.484 166.667H165.667C128.33 166.667 109.661 166.667 95.4007 173.933C82.8564 180.324 72.6577 190.523 66.2664 203.067C59 217.328 59 276.163 59 313.5V620.5" stroke="white" stroke-width="66.6667" stroke-linecap="round" stroke-linejoin="round"/>
</svg>
