<svg width="128" height="128" viewBox="0 0 128 128" fill="none" xmlns="http://www.w3.org/2000/svg">
<path d="M40.1965 9L34.1723 11.2102L34.9192 21.1668C32.7571 22.3516 30.7357 23.7384 28.8759 25.3L19.5578 21.4417L15.4708 26.303L21.0828 34.3752C19.7927 36.4996 18.7239 38.7565 17.8948 41.1181L8.05046 42.31L7 48.5142L15.8748 52.7113C15.8748 53.9538 15.9427 55.2088 16.0513 56.4723C16.1803 57.7351 16.3704 58.9774 16.6217 60.1943L8.75054 66.0019L11.0164 71.8852L20.9075 71.1813C22.1915 73.34 23.6895 75.3534 25.3776 77.1916L21.4834 86.1754L26.4539 90.1648L34.8248 84.6101C36.9596 85.7889 39.2214 86.7632 41.5782 87.5148L42.8283 97.4235L49.1758 98.4498L53.7035 89.2996C54.8829 89.2793 56.0719 89.2094 57.2669 89.0779L57.2683 89.0822L74.5862 87.421L72.1188 62.8483L54.7994 64.5075L55.5695 72.1549L55.5666 72.1525C44.6697 73.1976 34.9701 65.4114 33.8998 54.7614C32.8303 44.112 40.7972 34.6337 51.6929 33.5872V33.585L69.0109 31.9236L67.3107 14.993L49.9927 16.6542C48.7943 16.7519 47.6155 16.9072 46.4537 17.114L40.1965 9ZM77.8149 29.5502L73.2857 38.7003C72.1077 38.7206 70.9194 38.7912 69.723 38.922L52.4037 40.5833L54.1032 57.511L71.424 55.8498C74.0149 55.6011 76.6306 55.8536 79.1217 56.5929C81.6128 57.3323 83.9305 58.5441 85.9424 60.159C87.9544 61.7739 89.6212 63.7604 90.8477 66.005C92.0743 68.2496 92.8365 70.7084 93.0908 73.2409C93.6035 78.3553 92.0168 83.4593 88.6797 87.4301C85.3426 91.401 80.5285 93.9136 75.2962 94.4151L57.9769 96.0831L59.6771 113.011L76.9979 111.349C78.1963 111.248 79.3757 111.09 80.5342 110.887L86.8029 119L92.8216 116.789L92.0801 106.833C94.2408 105.648 96.2615 104.262 98.1201 102.7L107.442 106.558L111.525 101.697L105.916 93.625C107.206 91.5005 108.278 89.2417 109.109 86.8798L118.946 85.69L120 79.4858L111.123 75.2887C111.19 74.0465 111.055 72.791 110.946 71.5277C110.817 70.2649 110.627 69.0224 110.376 67.8054L118.248 61.9981L115.982 56.1126L106.094 56.8187C104.809 54.66 103.309 52.6465 101.621 50.8086L105.515 41.8247L100.545 37.8351L92.172 43.3899C90.0364 42.2108 87.7767 41.237 85.4198 40.4853L84.1657 30.5765L77.8149 29.5502Z" fill="white"/>
</svg>
