<svg width="128" height="128" viewBox="0 0 128 128" fill="none" xmlns="http://www.w3.org/2000/svg">
<path d="M115.372 92.3983C115.372 110.447 92.4821 119.122 64.0354 119.222H63.9654C35.5191 119.122 12.6231 110.447 12.6229 92.3983C12.6229 91.9976 12.5991 89.985 12.5917 88.1483L29.6829 89.7908L30.2704 98.2258C30.3415 99.242 31.1505 100.05 32.1667 100.123L52.4117 101.568C53.4783 101.647 54.4255 100.885 54.5817 99.8258L55.7429 91.952H72.2617L73.4217 99.8258C73.5705 100.836 74.4385 101.573 75.4442 101.573H75.5917L95.8367 100.13C96.8532 100.057 97.662 99.2472 97.7329 98.2308L98.3217 89.7958L115.404 88.1483C115.396 89.9858 115.372 91.9902 115.372 92.3983Z" fill="white"/>
<path d="M38.1529 58.752C42.3536 58.752 45.7554 62.157 45.7554 66.3545C45.7553 70.5521 42.3536 73.9545 38.1529 73.9545C33.9545 73.9545 30.5505 70.5521 30.5504 66.3545C30.5504 62.157 33.9544 58.752 38.1529 58.752Z" fill="white"/>
<path d="M89.8429 58.752C94.0445 58.752 97.4454 62.157 97.4454 66.3545C97.4453 70.5521 94.0446 73.9545 89.8429 73.9545C85.6456 73.9544 82.2455 70.552 82.2454 66.3545C82.2454 62.1571 85.6455 58.7522 89.8429 58.752Z" fill="white"/>
<path fill-rule="evenodd" clip-rule="evenodd" d="M52.0929 8.83578C54.232 12.4256 56.1841 16.3129 57.8842 20.1133C59.9021 19.7763 61.9273 19.6514 63.9604 19.627H64.0379C66.0673 19.6512 68.0943 19.7763 70.1117 20.1133C71.8129 16.3128 73.7669 12.4257 75.9029 8.83578C81.2531 10.0245 86.542 11.6797 91.5017 14.1758C91.3877 18.5544 91.1052 22.7502 90.5329 27.012C92.4552 28.2459 94.4821 29.3049 96.2804 30.7495C98.1107 32.1555 99.9735 33.5014 101.628 35.1458C104.934 32.9589 108.436 30.9038 112.04 29.0895C115.926 33.2714 119.562 37.7861 122.529 42.837C120.295 46.4495 117.964 49.8361 115.447 53.0495H115.377V81.5733H115.369V84.047C115.313 84.047 115.257 84.0607 115.2 84.0608L96.2029 85.8933C95.2073 85.9898 94.4265 86.7906 94.3567 87.7883L93.7717 96.177L77.1917 97.3608L76.0492 89.617C75.901 88.6131 75.0403 87.8695 74.0254 87.8695H53.9742C52.9587 87.8696 52.0973 88.6131 51.9492 89.617L50.8079 97.3608L34.2292 96.177L33.6429 87.7883C33.5736 86.7908 32.7933 85.9895 31.7979 85.8933L12.7917 84.0608C12.7357 84.0481 12.6794 84.0475 12.6229 84.047V53.0458H12.5517C10.0345 49.8323 7.70357 46.4456 5.47043 42.8333C8.43846 37.7826 12.0721 33.2691 15.9579 29.087C19.5632 30.9013 23.0628 32.9563 26.3692 35.1433C28.0243 33.4988 29.8914 32.153 31.7192 30.747C33.5181 29.3028 35.5421 28.2435 37.4679 27.0095C36.894 22.7475 36.6114 18.5513 36.4979 14.172C41.4574 11.6759 46.7469 10.0208 52.0942 8.83203L52.0929 8.83578ZM64.0004 60.962C61.9643 60.962 60.3144 62.4651 60.3142 64.3133V74.857C60.3142 76.7069 61.9642 78.2083 64.0004 78.2083C66.0365 78.2081 67.6904 76.7068 67.6904 74.857V64.3133C67.6902 62.4653 66.0364 60.9622 64.0004 60.962ZM37.0592 54.2158C30.7364 54.2158 25.607 59.3395 25.6067 65.6633C25.6067 71.9916 30.7361 77.1183 37.0592 77.1183C43.385 77.1179 48.5129 71.9913 48.5129 65.6633C48.5126 59.3398 43.3848 54.2162 37.0592 54.2158ZM90.9442 54.2158C84.6172 54.2158 79.4895 59.3395 79.4892 65.6633C79.4892 71.9915 84.617 77.1182 90.9442 77.1183C97.2665 77.1181 102.395 71.9915 102.395 65.6633C102.395 59.3396 97.2663 54.2159 90.9442 54.2158Z" fill="white"/>
</svg>
