<svg width="128" height="128" viewBox="0 0 128 128" fill="none" xmlns="http://www.w3.org/2000/svg">
<path fill-rule="evenodd" clip-rule="evenodd" d="M34.0874 86.9684C26.5431 77.203 21 66.5353 21 54.3636C21 30.4146 40.4755 11 64.5 11C88.5244 11 108 30.4146 108 54.3636C108 66.5353 102.457 77.203 94.9128 86.9684C88.6087 95.1284 80.5399 103.102 72.4795 111.068C70.9546 112.575 69.43 114.081 67.9177 115.589C66.0302 117.47 62.9698 117.47 61.0823 115.589C59.5707 114.082 58.0468 112.576 56.5226 111.07L56.5214 111.069C48.4607 103.103 40.3917 95.1287 34.0874 86.9684ZM64.5 73.6363C53.8223 73.6363 45.1668 65.0079 45.1668 54.3636C45.1668 43.7196 53.8223 35.0909 64.5 35.0909C75.1778 35.0909 83.8333 43.7196 83.8333 54.3636C83.8333 65.0079 75.1778 73.6363 64.5 73.6363Z" fill="white"/>
</svg>
