<svg width="128" height="128" viewBox="0 0 128 128" fill="none" xmlns="http://www.w3.org/2000/svg">
<path d="M21.8635 13.6369C16.8911 16.6015 7.09384 27.9041 7 30.8682V35.7753C7 41.9954 12.7901 47.4616 18.046 47.4616C24.3569 47.4616 29.6159 42.2087 29.617 35.9746C29.617 42.2082 34.6955 47.4616 41.0079 47.4616C47.3203 47.4616 52.2355 42.2087 52.2355 35.9746C52.2355 42.2082 57.6337 47.4616 63.9446 47.4616H64.058C70.3689 47.4616 75.7723 42.2087 75.7723 35.9746C75.7723 42.2082 80.6859 47.4616 86.9967 47.4616C93.3075 47.4616 98.3861 42.2087 98.3861 35.9746C98.3861 42.2082 103.645 47.4616 109.956 47.4616C115.21 47.4616 121 41.9959 121 35.7753V30.8682C120.902 27.9041 111.106 16.6015 106.135 13.6369C90.6832 13.0917 79.964 12.998 63.9961 13C48.0339 13.0011 26.2605 13.2512 21.8625 13.6369H21.8635ZM52.1561 44.5323C51.5524 45.5886 50.8048 46.555 49.9349 47.4036C47.4656 49.8356 44.1439 51.1966 40.6852 51.1935C37.0838 51.1935 33.7989 49.7438 31.4169 47.4026C30.5559 46.5535 29.9011 45.6454 29.2978 44.5882V44.5903C28.6997 45.6495 27.8593 46.5566 26.9983 47.4067C24.5226 49.8383 21.1962 51.1984 17.7331 51.195C17.3 51.195 16.8514 51.0759 16.4853 50.9517C15.9801 56.2585 15.7635 61.3271 15.6893 65.0289V65.0496C15.679 66.929 15.6712 68.4719 15.6614 70.6153C15.7594 81.7518 14.5632 106.701 20.5492 112.831C29.8247 115.006 46.8929 115.995 64.0188 116H64.0204C81.1452 115.995 98.2144 115.006 107.49 112.837C113.476 106.706 112.28 81.7559 112.378 70.623C112.369 68.4796 112.36 66.9357 112.35 65.0574V65.0367C112.273 61.339 112.059 56.2688 111.551 50.9631C111.185 51.0873 110.733 51.208 110.298 51.208C106.835 51.2113 103.508 49.8514 101.031 47.4202C100.167 46.5685 99.3291 45.6614 98.7295 44.6037L98.7269 44.6001C98.1252 45.6563 97.4699 46.5659 96.6063 47.4145C94.2243 49.7547 90.94 51.2043 87.3396 51.2043C83.7392 51.2043 80.4719 49.7547 78.0898 47.4145C77.2204 46.5652 76.4725 45.5989 75.8676 44.5431C75.2711 45.5984 74.5308 46.5648 73.6681 47.4145C71.1911 49.8475 67.8628 51.2082 64.3978 51.2043C64.272 51.2043 64.1451 51.1992 64.0214 51.194H64.0173C63.892 51.1992 63.7667 51.2043 63.6409 51.2043C60.039 51.2043 56.7541 49.7547 54.3716 47.4145C53.5082 46.5654 52.7671 45.5993 52.17 44.5442L52.1561 44.5323ZM42.6372 56.8922L42.6362 56.8963H42.6465C46.4155 56.9046 49.7668 56.8963 53.9122 61.4436C57.181 61.1003 60.5891 60.9279 64.0075 60.9336H64.0126C67.431 60.9284 70.8391 61.1045 74.1079 61.4462C78.2584 56.9005 81.6046 56.9108 85.3736 56.9005H85.3839V56.8953C87.1679 56.8953 94.2882 56.8953 99.2534 70.8949L104.589 90.1029C108.541 104.392 103.324 104.744 96.8172 104.755C87.1653 104.398 81.8238 97.3563 81.8238 90.3203C76.4822 91.2005 70.2487 91.6405 64.0178 91.6405H64.0152C57.7838 91.6405 51.5523 91.2005 46.2118 90.3203C46.2118 97.3563 40.8703 104.392 31.2194 104.755C24.7127 104.744 19.4949 104.392 23.4479 90.108L28.7791 70.9C33.7443 56.9005 40.8698 56.9005 42.6486 56.9005L42.6372 56.8922ZM64.0034 67.8941V67.8977C63.9946 67.9065 53.8452 77.2666 52.021 80.5957L58.667 80.3285V86.1479C58.667 86.4207 61.3346 86.3099 64.0034 86.1862H64.007C66.6762 86.3104 69.3433 86.4207 69.3433 86.1484V80.329L75.9893 80.5952C74.1652 77.2661 64.007 67.8977 64.007 67.8977V67.8946L64.0059 67.8956L64.0034 67.8941Z" fill="white"/>
</svg>
