<svg width="128" height="128" viewBox="0 0 128 128" fill="none" xmlns="http://www.w3.org/2000/svg">
<path d="M30.1609 11.879C27.8533 12.482 26.3669 13.3344 25.2116 14.4663C23.5829 16.0621 22.521 18.3025 21.9404 22.5333C21.3427 26.8885 21.3333 32.6606 21.3333 40.9369V86.6357C23.4063 85.2165 25.7426 84.1365 28.2613 83.4757C28.8691 83.3157 29.4988 83.1909 30.1609 83.0928V11.879Z" fill="white"/>
<path d="M38.9885 82.7386C39.051 82.7386 39.1137 82.7386 39.1767 82.7386H106.667V40.9369C106.667 32.6606 106.657 26.8884 106.06 22.5332C105.479 18.3025 104.417 16.0621 102.788 14.4663C101.159 12.8706 98.8731 11.8301 94.5547 11.2613C90.1093 10.6758 84.2176 10.6666 75.7701 10.6666H52.2299C46.8874 10.6666 42.5671 10.6703 38.9885 10.8211V82.7386Z" fill="white"/>
<path d="M46.3454 91.3872H39.8588C34.1017 91.3872 32.089 91.4245 30.5466 91.8293C26.3133 92.9408 22.9386 96.0235 21.4914 100.031C21.5809 102.07 21.7211 103.865 21.941 105.467C22.5216 109.698 23.5835 111.938 25.2122 113.534C26.841 115.13 29.1277 116.17 33.4461 116.739C37.8914 117.324 43.7829 117.333 52.2305 117.333H75.7707C84.2181 117.333 90.1099 117.324 94.5552 116.739C98.8736 116.17 101.16 115.13 102.789 113.534C104.418 111.938 105.479 109.698 106.06 105.467C106.548 101.914 106.644 97.4171 106.663 91.3872H69.8859V107.422C69.8859 109.012 69.8859 109.806 69.3275 110.127C68.7691 110.448 68.0059 110.093 66.4789 109.382L59.1685 105.98C58.6517 105.74 58.3936 105.62 58.1157 105.62C57.8379 105.62 57.5792 105.74 57.0629 105.98L49.7522 109.382C48.2253 110.093 47.4619 110.448 46.9036 110.127C46.3454 109.806 46.3454 109.012 46.3454 107.422V91.3872Z" fill="white"/>
</svg>
