<svg width="24" height="24" viewBox="0 0 24 24" fill="none" xmlns="http://www.w3.org/2000/svg">
<path d="M21.846 3L18.48 3.492L19.707 6.342L22.2795 5.967L21.846 3ZM15.5115 3.9225L12.5445 4.3575L13.7715 7.2105L16.74 6.7755L15.5115 3.9225ZM9.573 4.7895L6.606 5.2245L7.833 8.0775L10.8015 7.6425L9.573 4.7895ZM3.6375 5.6565L1.0665 6.0315L1.5 9L4.866 8.508L3.6375 5.6565ZM1.5 10.5V19.5C1.5 20.2956 1.81607 21.0587 2.37868 21.6213C2.94129 22.1839 3.70435 22.5 4.5 22.5H22.5V10.5H1.5ZM9 12L16.5 16.5L9 21V12Z" fill="#E0E0E0"/>
</svg>
