<svg width="16" height="16" viewBox="0 0 16 16" fill="none" xmlns="http://www.w3.org/2000/svg">
<path d="M2 1C1.73478 1 1.48043 1.10536 1.29289 1.29289C1.10536 1.48043 1 1.73478 1 2V14C1 14.2652 1.10536 14.5196 1.29289 14.7071C1.48043 14.8946 1.73478 15 2 15H14C14.2652 15 14.5196 14.8946 14.7071 14.7071C14.8946 14.5196 15 14.2652 15 14V6L10 1H2ZM3 3H9V6C9 6.26522 9.10536 6.51957 9.29289 6.70711C9.48043 6.89464 9.73478 7 10 7H13V13H3V3Z" fill="#E0E0E0"/>
<path d="M10 11H12V12H10V11Z" fill="#E0E0E0"/>
<path d="M4 6H6V7H4V6Z" fill="#E0E0E0"/>
<path d="M8 8H12V9H8V8Z" fill="#E0E0E0"/>
<path d="M7 6H8V7H7V6Z" fill="#E0E0E0"/>
<path d="M4 11H9V12H4V11Z" fill="#E0E0E0"/>
<path d="M4 4H7V5H4V4Z" fill="#E0E0E0"/>
<path d="M4 8H7V9H4V8Z" fill="#E0E0E0"/>
</svg>
