<svg width="16" height="16" viewBox="0 0 16 16" fill="none" xmlns="http://www.w3.org/2000/svg">
<path fill-rule="evenodd" clip-rule="evenodd" d="M8.21582 1.00488C11.271 1.09742 13.8337 3.1466 14.6924 5.94238C14.7938 6.27279 14.871 6.61365 14.9229 6.96289C14.9731 7.30133 15 7.64755 15 8C15 8.22037 14.9877 8.43816 14.9678 8.65332C14.9255 9.10986 14.8405 9.5536 14.7148 9.98047C13.8775 12.823 11.2848 14.9124 8.19043 14.9951C8.12746 14.9968 8.06337 15 8 15C7.93597 15 7.87221 14.9968 7.80859 14.9951C4.7147 14.912 2.12239 12.8227 1.28516 9.98047C1.15945 9.55357 1.07352 9.10989 1.03125 8.65332C1.01133 8.43819 1 8.22034 1 8C1 7.64755 1.02687 7.30133 1.07715 6.96289C1.12901 6.61375 1.20522 6.27271 1.30664 5.94238C2.165 3.14734 4.72725 1.09864 7.78125 1.00488C7.85391 1.00265 7.9268 1 8 1C8.07222 1 8.14413 1.00271 8.21582 1.00488ZM3.18848 9.36133C3.62332 10.9013 4.77699 12.1387 6.26465 12.6895C5.74758 11.7334 5.38571 10.7665 5.18555 9.79004C4.8609 9.74422 4.54591 9.69177 4.24414 9.62988C3.87347 9.55385 3.51957 9.46306 3.18848 9.36133ZM12.8105 9.36133C12.4797 9.46295 12.1262 9.55392 11.7559 9.62988C11.4538 9.69183 11.1385 9.74419 10.8135 9.79004C10.6133 10.7667 10.2504 11.7332 9.7334 12.6895C11.2218 12.1391 12.3755 10.9018 12.8105 9.36133ZM9.2373 9.94336C8.83007 9.96678 8.41605 9.98047 8 9.98047C7.58362 9.98047 7.16927 9.96682 6.76172 9.94336C7.00219 10.8436 7.41178 11.7552 8 12.6807C8.58816 11.7553 8.99683 10.8436 9.2373 9.94336ZM8 3.31836C6.98416 4.91642 6.5 6.47403 6.5 8C6.5 8.14102 6.50538 8.28225 6.51367 8.42383C6.99589 8.46008 7.49472 8.48047 8 8.48047C8.50494 8.48047 9.00343 8.46003 9.48535 8.42383C9.49364 8.28223 9.5 8.14104 9.5 8C9.5 6.47403 9.01584 4.91642 8 3.31836ZM6.2666 3.30859C4.44728 3.98104 3.12649 5.68158 3.00879 7.70508C3.39344 7.87052 3.90694 8.02927 4.54492 8.16016C4.69404 8.19074 4.84786 8.21771 5.00488 8.24414C5.00262 8.16281 5 8.08146 5 8C5 6.41095 5.43348 4.84606 6.2666 3.30859ZM9.73242 3.30859C10.5657 4.84619 11 6.41081 11 8C11 8.08147 10.9964 8.1628 10.9941 8.24414C11.1515 8.21766 11.3057 8.19081 11.4551 8.16016C12.0926 8.02937 12.6057 7.87039 12.9902 7.70508C12.8725 5.68129 11.5522 3.98082 9.73242 3.30859Z" fill="url(#paint0_linear_110_123)"/>
<defs>
<linearGradient id="paint0_linear_110_123" x1="-3.99159e-09" y1="3.99139e-09" x2="16" y2="-5.98741e-08" gradientUnits="userSpaceOnUse">
<stop stop-color="#FC7F7F"/>
<stop offset="0.5" stop-color="#FC7F7F"/>
<stop offset="0.5" stop-color="#8DA5F3"/>
</linearGradient>
</defs>
</svg>
