<svg width="62" height="62" viewBox="0 0 62 62" fill="none" xmlns="http://www.w3.org/2000/svg">
<path d="M23.1243 3.50977L25.5334 6.63672L34.801 5.74805L36.2883 5.60547L36.4368 7.0918L36.9348 12.0664C44.4775 13.1589 50.0008 16.1814 53.6555 20.3145C57.4949 24.6564 59.1671 30.1061 59.0559 35.5107C58.8351 46.2412 51.5366 57.1407 39.6438 59.1768L38.7542 59.3291L38.2034 58.6143L35.7883 55.4854L26.5178 56.377L25.0305 56.5195L24.8821 55.0342L24.3821 50.0625C-2.36651 46.242 -5.1226 10.3943 21.5334 2.97949L22.5071 2.70898L23.1243 3.50977Z" fill="white" stroke="#7E1CC9" stroke-width="3"/>
<path d="M20.9023 8L18.3794 8.92675L18.6922 13.1015C17.7868 13.5983 16.9402 14.1798 16.1614 14.8346L12.2591 13.2168L10.5475 15.2552L12.8977 18.6398C12.3574 19.5306 11.9099 20.4769 11.5626 21.4672L7.43992 21.9669L7 24.5683L10.7166 26.3282C10.7166 26.8492 10.7451 27.3754 10.7906 27.9052C10.8446 28.4347 10.9242 28.9556 11.0294 29.4658L7.73311 31.901L8.68201 34.3678L12.8243 34.0727C13.362 34.9778 13.9894 35.8221 14.6963 36.5928L13.0655 40.3598L15.1471 42.0325L18.6527 39.7034C19.5467 40.1977 20.494 40.6062 21.4809 40.9214L22.0045 45.0761L24.6627 45.5064L26.5589 41.6697C27.0528 41.6612 27.5507 41.6319 28.0512 41.5768L28.0518 41.5786L35.3043 40.882L34.271 30.5787L27.0178 31.2744L27.3403 34.4809L27.3391 34.4799C22.7756 34.9181 18.7135 31.6534 18.2653 27.1878C17.8174 22.7225 21.1539 18.7482 25.7169 18.3095V18.3085L32.9694 17.6119L32.2574 10.5129L25.0049 11.2094C24.503 11.2504 24.0093 11.3155 23.5227 11.4022L20.9023 8ZM36.6565 16.6167L34.7597 20.4534C34.2663 20.4619 33.7687 20.4915 33.2677 20.5464L26.0145 21.2429L26.7263 28.3407L33.98 27.6442C35.0651 27.5399 36.1605 27.6458 37.2037 27.9558C38.247 28.2658 39.2176 28.7739 40.0602 29.451C40.9027 30.1282 41.6008 30.9611 42.1144 31.9023C42.6281 32.8434 42.9473 33.8744 43.0538 34.9363C43.2685 37.0808 42.604 39.2209 41.2065 40.8859C39.8089 42.5509 37.7928 43.6044 35.6017 43.8147L28.3485 44.5141L29.0605 51.6119L36.3143 50.9153C36.8162 50.8726 37.3101 50.8066 37.7952 50.7213L40.4205 54.1231L42.9411 53.1963L42.6306 49.0216C43.5354 48.5248 44.3817 47.9433 45.16 47.2885L49.0637 48.9063L50.7739 46.868L48.4248 43.4834C48.9651 42.5926 49.4141 41.6454 49.7619 40.6551L53.8817 40.1562L54.3231 37.5548L50.6053 35.795C50.6337 35.2741 50.5768 34.7477 50.5314 34.2179C50.4773 33.6885 50.3977 33.1675 50.2925 32.6572L53.5892 30.2222L52.6403 27.7544L48.4994 28.0504C47.9614 27.1453 47.3332 26.3011 46.6263 25.5304L48.2568 21.7634L46.1755 20.0906L42.669 22.4197C41.7747 21.9253 40.8283 21.517 39.8413 21.2018L39.3161 17.0471L36.6565 16.6167Z" fill="#7E1CC9"/>
</svg>
