<svg width="100" height="100" viewBox="0 0 100 100" fill="none" xmlns="http://www.w3.org/2000/svg">
<path d="M90.133 65.7001C90.133 65.7001 89.9997 64.8821 89.9217 64.8895L75.0792 66.3215C73.8981 66.4356 72.9809 67.3774 72.898 68.5609L72.4903 74.4053L61.0074 75.2245L60.2263 69.9278C60.0524 68.7496 59.0236 67.8615 57.8327 67.8615H42.1672C40.9767 67.8615 39.9479 68.7496 39.774 69.9278L38.9925 75.2245L27.5096 74.4053L27.1019 68.5609C27.019 67.377 26.1018 66.4352 24.9207 66.3211L10.0708 64.8895C9.99406 64.8821 9.93787 65.7009 9.86115 65.7009L9.84105 68.9129L22.4176 70.941L22.8294 76.8375C22.9127 78.0313 23.8759 78.9965 25.0705 79.0823L40.8849 80.2104C40.9448 80.2145 41.0038 80.2169 41.0629 80.2169C42.2513 80.2169 43.2785 79.3284 43.4524 78.1502L44.256 72.7H55.7443L56.5479 78.1502C56.7214 79.328 57.7498 80.2165 58.9399 80.2165C58.9981 80.2165 59.0564 80.2145 59.1134 80.2104L74.9298 79.0823C76.124 78.9965 77.0876 78.0313 77.1709 76.8375L77.5823 70.941L90.1535 68.9039L90.133 65.7001Z" fill="white"/>
<path d="M40.764 4.19995C40.5402 4.18995 40.3166 4.21604 40.098 4.26404C35.7663 5.22704 31.4101 6.58148 27.268 8.66638C26.309 9.14908 25.7149 10.142 25.7426 11.2152C25.8174 14.1019 26.0692 16.9102 26.3871 19.7445C25.3095 20.3895 24.233 20.9765 23.0453 21.9301C22.1998 22.5794 21.2568 23.4034 20.3344 24.1664C18.1857 22.817 16.0147 21.474 13.7153 20.3168C12.6128 19.7617 11.276 20.0021 10.436 20.9066C7.30951 24.2714 4.33751 27.9528 1.88331 32.1296C1.36267 33.0164 1.37545 34.1184 1.91651 34.9929C3.53961 37.6184 5.26831 40.0723 7.08841 42.4518V72.2568C7.08841 80.4798 12.5604 86.7528 20.3874 90.4948C28.2142 94.2374 38.5724 95.9472 49.9634 95.9871H50.0377C61.4287 95.9471 71.7867 94.2375 79.6117 90.4948C87.4367 86.752 92.9067 80.4788 92.9067 72.2568L92.9106 43.2258C94.7593 40.514 96.2931 37.8916 98.0844 34.9952C98.6246 34.1212 98.6374 33.0203 98.1176 32.134C95.6639 27.9569 92.6892 24.274 89.5629 20.9091C88.7232 20.0055 87.3876 19.765 86.2856 20.3191C83.9871 21.4761 81.8153 22.8214 79.6665 24.1707C78.7442 23.4072 77.804 22.5831 76.9556 21.9324C76.9522 21.9324 76.9492 21.9324 76.9458 21.9224C75.7603 20.9714 74.6874 20.3854 73.6138 19.7427C73.9309 16.9087 74.1832 14.0997 74.2583 11.2134C74.2861 10.1401 73.6919 9.14725 72.7329 8.66455C68.5906 6.57995 64.2348 5.22531 59.9009 4.26221C58.7321 4.00271 57.5288 4.52247 56.9165 5.55127C55.516 7.90507 54.3148 10.4065 53.1528 12.8774C52.1176 12.7834 51.067 12.6394 50.0649 12.6274C50.0538 12.6273 50.0428 12.6273 50.0317 12.6274H49.9712C49.9601 12.6273 49.949 12.6273 49.938 12.6274C48.9338 12.6394 47.8819 12.783 46.8462 12.8774C45.731 10.5049 44.5695 8.11309 43.231 5.84229C43.1867 5.74169 43.1365 5.64392 43.0806 5.54932C42.5925 4.72982 41.7177 4.2186 40.7642 4.1958L40.764 4.19995Z" fill="white"/>
<path d="M40.699 6.90002C36.5213 7.82872 32.3887 9.1217 28.514 11.0719C28.6026 14.4932 28.8238 17.7713 29.2722 21.101C27.7675 22.0651 26.1862 22.8924 24.7807 24.0208C23.3527 25.1193 21.8943 26.1704 20.6012 27.4552C18.0181 25.7466 15.2841 24.1412 12.4675 22.7238C9.43147 25.9912 6.59267 29.5176 4.27377 33.4637C6.01847 36.2859 7.83977 38.9315 9.80637 41.4421H9.86143V65.6621C9.90571 65.6625 9.94998 65.6621 9.99385 65.6721L24.8419 67.1038C25.6196 67.1788 26.2292 67.8048 26.2833 68.5842L26.7413 75.1387L39.6933 76.0627L40.5856 70.0134C40.7013 69.229 41.374 68.6477 42.1674 68.6477H57.8324C58.6253 68.6477 59.2981 69.229 59.4138 70.0134L60.3061 76.0627L73.2591 75.1387L73.7166 68.5842C73.7712 67.8048 74.3803 67.1792 75.1581 67.1038L90.0001 65.6721C90.044 65.6721 90.0879 65.6621 90.1321 65.6621V63.7295H90.1379V41.4445H90.193C92.16 38.934 93.9801 36.2884 95.7256 33.4661C93.4075 29.5199 90.5671 25.9933 87.5311 22.7261C84.7154 24.1435 81.9804 25.7491 79.3972 27.4576C78.1046 26.1728 76.6487 25.1218 75.2187 24.0233C73.8137 22.8947 72.2304 22.0674 70.7286 21.1034C71.1758 17.7736 71.3968 14.4954 71.4858 11.0743C67.6109 9.12424 63.4788 7.83117 59.2988 6.90247C57.63 9.70717 56.1039 12.7443 54.7748 15.7135C53.1987 15.4502 51.6153 15.3526 50.0298 15.3337H49.999H49.969C48.3806 15.3527 46.7986 15.4502 45.2221 15.7135C43.8938 12.7443 42.3686 9.70717 40.6973 6.90247L40.699 6.90002ZM9.837 68.866C9.84277 70.3009 9.86145 71.873 9.86145 72.186C9.86145 86.287 27.7495 93.064 49.9735 93.142H50.0279C72.2519 93.064 90.1339 86.2866 90.1339 72.186C90.1339 71.8672 90.1532 70.3016 90.1597 68.866L76.8137 70.1532L76.3537 76.7427C76.2983 77.5368 75.6666 78.1688 74.8724 78.2258L59.0564 79.3544H58.9411C58.1551 79.3544 57.477 78.7777 57.3609 77.9884L56.454 71.8374H43.549L42.642 77.9884C42.5202 78.8161 41.78 79.4113 40.9465 79.3501L25.1305 78.2216C24.3363 78.1646 23.7046 77.5327 23.6492 76.7385L23.1894 70.1489L9.837 68.866Z" fill="#414042"/>
<path d="M37.9 51.3C37.9 56.2439 33.8942 60.2489 28.9519 60.2489C24.012 60.2489 20.005 56.2439 20.005 51.3C20.005 46.3593 24.012 42.3563 28.9519 42.3563C33.8942 42.3563 37.9 46.3593 37.9 51.3Z" fill="white"/>
<path d="M50 61.1C48.4092 61.1 47.1198 59.9276 47.1198 58.4824V50.2447C47.1198 48.8008 48.4092 47.6271 50 47.6271C51.5908 47.6271 52.883 48.8008 52.883 50.2447V58.4824C52.883 59.9276 51.5908 61.1 50 61.1Z" fill="white"/>
<path d="M62.101 51.3C62.101 56.2439 66.1068 60.2489 71.05 60.2489C75.9894 60.2489 79.996 56.2439 79.996 51.3C79.996 46.3593 75.9894 42.3563 71.05 42.3563C66.1068 42.3563 62.101 46.3593 62.101 51.3Z" fill="white"/>
<path d="M29.807 45.9C26.5269 45.9 23.8675 48.5601 23.8675 51.8394C23.8675 55.1188 26.5269 57.7765 29.807 57.7765C33.0888 57.7765 35.7467 55.1188 35.7467 51.8394C35.7467 48.5601 33.0888 45.9 29.807 45.9ZM70.19 45.9C66.9107 45.9 64.2538 48.5601 64.2538 51.8394C64.2538 55.1188 66.9107 57.7765 70.19 57.7765C73.4726 57.7765 76.1296 55.1188 76.1296 51.8394C76.1296 48.5601 73.4725 45.9 70.19 45.9Z" fill="#414042"/>
</svg>
